<svg width="521" height="193" viewBox="0 0 521 193" fill="none" xmlns="http://www.w3.org/2000/svg">
<path d="M18.24 44.84C14.08 44.84 10.58 43.92 7.74 42.08C4.9 40.2 2.9 37.66 1.74 34.46L8.82 30.32C10.46 34.6 13.68 36.74 18.48 36.74C20.8 36.74 22.5 36.32 23.58 35.48C24.66 34.64 25.2 33.58 25.2 32.3C25.2 30.82 24.54 29.68 23.22 28.88C21.9 28.04 19.54 27.14 16.14 26.18C14.26 25.62 12.66 25.06 11.34 24.5C10.06 23.94 8.76 23.2 7.44 22.28C6.16 21.32 5.18 20.12 4.5 18.68C3.82 17.24 3.48 15.56 3.48 13.64C3.48 9.84 4.82 6.82 7.5 4.58C10.22 2.3 13.48 1.16 17.28 1.16C20.68 1.16 23.66 2 26.22 3.68C28.82 5.32 30.84 7.62 32.28 10.58L25.32 14.6C23.64 11 20.96 9.2 17.28 9.2C15.56 9.2 14.2 9.6 13.2 10.4C12.24 11.16 11.76 12.16 11.76 13.4C11.76 14.72 12.3 15.8 13.38 16.64C14.5 17.44 16.62 18.32 19.74 19.28C21.02 19.68 21.98 20 22.62 20.24C23.3 20.44 24.2 20.78 25.32 21.26C26.48 21.7 27.36 22.12 27.96 22.52C28.6 22.92 29.32 23.46 30.12 24.14C30.92 24.82 31.52 25.52 31.92 26.24C32.36 26.96 32.72 27.84 33 28.88C33.32 29.88 33.48 30.98 33.48 32.18C33.48 36.06 32.06 39.14 29.22 41.42C26.42 43.7 22.76 44.84 18.24 44.84ZM46.8675 36.08H64.5675V44H38.5875V2H64.2675V9.92H46.8675V18.86H62.7675V26.66H46.8675V36.08ZM105.451 38.54C101.211 42.74 96.0509 44.84 89.9709 44.84C83.8909 44.84 78.7309 42.74 74.4909 38.54C70.2909 34.3 68.1909 29.12 68.1909 23C68.1909 16.88 70.2909 11.72 74.4909 7.52C78.7309 3.28 83.8909 1.16 89.9709 1.16C96.0509 1.16 101.211 3.28 105.451 7.52C109.691 11.72 111.811 16.88 111.811 23C111.811 29.12 109.691 34.3 105.451 38.54ZM80.3109 32.9C82.9109 35.46 86.1309 36.74 89.9709 36.74C93.8109 36.74 97.0309 35.46 99.6309 32.9C102.231 30.3 103.531 27 103.531 23C103.531 19 102.231 15.7 99.6309 13.1C97.0309 10.5 93.8109 9.2 89.9709 9.2C86.1309 9.2 82.9109 10.5 80.3109 13.1C77.7109 15.7 76.4109 19 76.4109 23C76.4109 27 77.7109 30.3 80.3109 32.9ZM167.85 41.6L161.25 45.38L157.41 41.24C154.17 43.64 150.41 44.84 146.13 44.84C141.81 44.84 138.27 43.72 135.51 41.48C132.79 39.2 131.43 36.16 131.43 32.36C131.43 29.88 132.03 27.58 133.23 25.46C134.43 23.34 136.17 21.62 138.45 20.3C137.09 18.14 136.41 15.8 136.41 13.28C136.41 9.72 137.65 6.82 140.13 4.58C142.61 2.3 145.75 1.16 149.55 1.16C152.55 1.16 155.23 1.94 157.59 3.5C159.99 5.02 161.77 7.24 162.93 10.16L155.85 14.24C154.69 10.88 152.63 9.2 149.67 9.2C148.23 9.2 147.03 9.62 146.07 10.46C145.15 11.3 144.69 12.36 144.69 13.64C144.69 14.76 144.95 15.78 145.47 16.7C146.03 17.62 146.91 18.72 148.11 20L157.11 29.84C157.99 27.96 158.67 25.64 159.15 22.88L166.11 26.84C165.35 30.08 164.13 33.02 162.45 35.66L167.85 41.6ZM146.67 37.22C148.75 37.22 150.61 36.72 152.25 35.72L143.19 25.88C143.11 25.8 143.07 25.74 143.07 25.7C140.87 27.06 139.77 29 139.77 31.52C139.77 33.24 140.35 34.62 141.51 35.66C142.71 36.7 144.43 37.22 146.67 37.22ZM204.682 2C210.442 2 215.242 4.02 219.082 8.06C222.962 12.1 224.902 17.08 224.902 23C224.902 28.92 222.962 33.9 219.082 37.94C215.242 41.98 210.442 44 204.682 44H188.002V2H204.682ZM204.682 36.08C208.322 36.08 211.282 34.88 213.562 32.48C215.842 30.04 216.982 26.88 216.982 23C216.982 19.12 215.842 15.98 213.562 13.58C211.282 11.14 208.322 9.92 204.682 9.92H196.282V36.08H204.682ZM234.255 10.4C232.975 10.4 231.855 9.94 230.895 9.02C229.975 8.06 229.515 6.94 229.515 5.66C229.515 4.38 229.975 3.26 230.895 2.3C231.855 1.34 232.975 0.859998 234.255 0.859998C235.575 0.859998 236.695 1.34 237.615 2.3C238.575 3.26 239.055 4.38 239.055 5.66C239.055 6.94 238.575 8.06 237.615 9.02C236.695 9.94 235.575 10.4 234.255 10.4ZM230.415 44V14H238.155V44H230.415ZM268.219 14H275.779V42.56C275.779 47.2 274.239 50.74 271.159 53.18C268.119 55.62 264.439 56.84 260.119 56.84C256.879 56.84 254.019 56.22 251.539 54.98C249.099 53.74 247.219 51.92 245.899 49.52L252.499 45.74C254.019 48.54 256.639 49.94 260.359 49.94C262.799 49.94 264.719 49.3 266.119 48.02C267.519 46.74 268.219 44.92 268.219 42.56V39.32C265.939 42.36 262.739 43.88 258.619 43.88C254.379 43.88 250.819 42.4 247.939 39.44C245.099 36.44 243.679 32.8 243.679 28.52C243.679 24.28 245.119 20.66 247.999 17.66C250.879 14.66 254.419 13.16 258.619 13.16C262.739 13.16 265.939 14.68 268.219 17.72V14ZM253.759 34.46C255.359 35.98 257.379 36.74 259.819 36.74C262.259 36.74 264.259 35.98 265.819 34.46C267.419 32.9 268.219 30.92 268.219 28.52C268.219 26.16 267.419 24.22 265.819 22.7C264.259 21.14 262.259 20.36 259.819 20.36C257.379 20.36 255.359 21.14 253.759 22.7C252.199 24.22 251.419 26.16 251.419 28.52C251.419 30.92 252.199 32.9 253.759 34.46ZM286.638 10.4C285.358 10.4 284.238 9.94 283.278 9.02C282.358 8.06 281.898 6.94 281.898 5.66C281.898 4.38 282.358 3.26 283.278 2.3C284.238 1.34 285.358 0.859998 286.638 0.859998C287.958 0.859998 289.078 1.34 289.998 2.3C290.958 3.26 291.438 4.38 291.438 5.66C291.438 6.94 290.958 8.06 289.998 9.02C289.078 9.94 287.958 10.4 286.638 10.4ZM282.798 44V14H290.538V44H282.798ZM314.782 21.44H308.002V33.92C308.002 34.96 308.262 35.72 308.782 36.2C309.302 36.68 310.062 36.96 311.062 37.04C312.062 37.08 313.302 37.06 314.782 36.98V44C309.462 44.6 305.702 44.1 303.502 42.5C301.342 40.9 300.262 38.04 300.262 33.92V21.44H295.042V14H300.262V7.94L308.002 5.6V14H314.782V21.44ZM342.102 14H349.842V44H342.102V40.46C339.782 43.38 336.522 44.84 332.322 44.84C328.322 44.84 324.882 43.32 322.002 40.28C319.162 37.2 317.742 33.44 317.742 29C317.742 24.56 319.162 20.82 322.002 17.78C324.882 14.7 328.322 13.16 332.322 13.16C336.522 13.16 339.782 14.62 342.102 17.54V14ZM327.822 35.12C329.382 36.68 331.362 37.46 333.762 37.46C336.162 37.46 338.142 36.68 339.702 35.12C341.302 33.52 342.102 31.48 342.102 29C342.102 26.52 341.302 24.5 339.702 22.94C338.142 21.34 336.162 20.54 333.762 20.54C331.362 20.54 329.382 21.34 327.822 22.94C326.262 24.5 325.482 26.52 325.482 29C325.482 31.48 326.262 33.52 327.822 35.12ZM356.86 44V0.199999H364.6V44H356.86ZM45 76V118H36.78V90.76L24.96 110.26H24L12.18 90.82V118H3.9V76H12.42L24.48 95.86L36.48 76H45ZM75.2658 88H83.0058V118H75.2658V114.46C72.9458 117.38 69.6858 118.84 65.4858 118.84C61.4858 118.84 58.0458 117.32 55.1658 114.28C52.3258 111.2 50.9058 107.44 50.9058 103C50.9058 98.56 52.3258 94.82 55.1658 91.78C58.0458 88.7 61.4858 87.16 65.4858 87.16C69.6858 87.16 72.9458 88.62 75.2658 91.54V88ZM60.9858 109.12C62.5458 110.68 64.5258 111.46 66.9258 111.46C69.3258 111.46 71.3058 110.68 72.8658 109.12C74.4658 107.52 75.2658 105.48 75.2658 103C75.2658 100.52 74.4658 98.5 72.8658 96.94C71.3058 95.34 69.3258 94.54 66.9258 94.54C64.5258 94.54 62.5458 95.34 60.9858 96.94C59.4258 98.5 58.6458 100.52 58.6458 103C58.6458 105.48 59.4258 107.52 60.9858 109.12ZM97.7644 93.16C98.4844 91.24 99.6644 89.8 101.304 88.84C102.984 87.88 104.844 87.4 106.884 87.4V96.04C104.524 95.76 102.404 96.24 100.524 97.48C98.6844 98.72 97.7644 100.78 97.7644 103.66V118H90.0244V88H97.7644V93.16ZM139.071 118H130.071L119.151 104.38V118H111.411V76H119.151V101.2L129.471 88H138.711L126.651 102.82L139.071 118ZM147.307 106.18C148.347 109.94 151.167 111.82 155.767 111.82C158.727 111.82 160.967 110.82 162.487 108.82L168.727 112.42C165.767 116.7 161.407 118.84 155.647 118.84C150.687 118.84 146.707 117.34 143.707 114.34C140.707 111.34 139.207 107.56 139.207 103C139.207 98.48 140.687 94.72 143.647 91.72C146.607 88.68 150.407 87.16 155.047 87.16C159.447 87.16 163.067 88.68 165.907 91.72C168.787 94.76 170.227 98.52 170.227 103C170.227 104 170.127 105.06 169.927 106.18H147.307ZM147.187 100.18H162.487C162.047 98.14 161.127 96.62 159.727 95.62C158.367 94.62 156.807 94.12 155.047 94.12C152.967 94.12 151.247 94.66 149.887 95.74C148.527 96.78 147.627 98.26 147.187 100.18ZM191.911 95.44H185.131V107.92C185.131 108.96 185.391 109.72 185.911 110.2C186.431 110.68 187.191 110.96 188.191 111.04C189.191 111.08 190.431 111.06 191.911 110.98V118C186.591 118.6 182.831 118.1 180.631 116.5C178.471 114.9 177.391 112.04 177.391 107.92V95.44H172.171V88H177.391V81.94L185.131 79.6V88H191.911V95.44ZM201.208 84.4C199.928 84.4 198.808 83.94 197.848 83.02C196.928 82.06 196.468 80.94 196.468 79.66C196.468 78.38 196.928 77.26 197.848 76.3C198.808 75.34 199.928 74.86 201.208 74.86C202.528 74.86 203.648 75.34 204.568 76.3C205.528 77.26 206.008 78.38 206.008 79.66C206.008 80.94 205.528 82.06 204.568 83.02C203.648 83.94 202.528 84.4 201.208 84.4ZM197.368 118V88H205.108V118H197.368ZM228.872 87.16C232.152 87.16 234.852 88.26 236.972 90.46C239.132 92.66 240.212 95.7 240.212 99.58V118H232.472V100.54C232.472 98.54 231.932 97.02 230.852 95.98C229.772 94.9 228.332 94.36 226.532 94.36C224.532 94.36 222.932 94.98 221.732 96.22C220.532 97.46 219.932 99.32 219.932 101.8V118H212.192V88H219.932V91.36C221.812 88.56 224.792 87.16 228.872 87.16ZM269.801 88H277.361V116.56C277.361 121.2 275.821 124.74 272.741 127.18C269.701 129.62 266.021 130.84 261.701 130.84C258.461 130.84 255.601 130.22 253.121 128.98C250.681 127.74 248.801 125.92 247.481 123.52L254.081 119.74C255.601 122.54 258.221 123.94 261.941 123.94C264.381 123.94 266.301 123.3 267.701 122.02C269.101 120.74 269.801 118.92 269.801 116.56V113.32C267.521 116.36 264.321 117.88 260.201 117.88C255.961 117.88 252.401 116.4 249.521 113.44C246.681 110.44 245.261 106.8 245.261 102.52C245.261 98.28 246.701 94.66 249.581 91.66C252.461 88.66 256.001 87.16 260.201 87.16C264.321 87.16 267.521 88.68 269.801 91.72V88ZM255.341 108.46C256.941 109.98 258.961 110.74 261.401 110.74C263.841 110.74 265.841 109.98 267.401 108.46C269.001 106.9 269.801 104.92 269.801 102.52C269.801 100.16 269.001 98.22 267.401 96.7C265.841 95.14 263.841 94.36 261.401 94.36C258.961 94.36 256.941 95.14 255.341 96.7C253.781 98.22 253.001 100.16 253.001 102.52C253.001 104.92 253.781 106.9 255.341 108.46ZM324.82 83.92H308.02V93.88H324.34V101.8H308.02V118H299.74V76H324.82V83.92ZM356.053 114.28C352.973 117.32 349.213 118.84 344.773 118.84C340.333 118.84 336.573 117.32 333.493 114.28C330.453 111.2 328.933 107.44 328.933 103C328.933 98.56 330.453 94.82 333.493 91.78C336.573 88.7 340.333 87.16 344.773 87.16C349.213 87.16 352.973 88.7 356.053 91.78C359.133 94.82 360.673 98.56 360.673 103C360.673 107.44 359.133 111.2 356.053 114.28ZM338.953 108.94C340.513 110.5 342.453 111.28 344.773 111.28C347.093 111.28 349.033 110.5 350.593 108.94C352.153 107.38 352.933 105.4 352.933 103C352.933 100.6 352.153 98.62 350.593 97.06C349.033 95.5 347.093 94.72 344.773 94.72C342.453 94.72 340.513 95.5 338.953 97.06C337.433 98.62 336.673 100.6 336.673 103C336.673 105.4 337.433 107.38 338.953 108.94ZM373.858 93.16C374.578 91.24 375.758 89.8 377.398 88.84C379.078 87.88 380.938 87.4 382.978 87.4V96.04C380.618 95.76 378.498 96.24 376.618 97.48C374.778 98.72 373.858 100.78 373.858 103.66V118H366.118V88H373.858V93.16ZM436.105 76L421.705 101.62V118H413.485V101.62L399.145 76H408.505L417.625 93.52L426.745 76H436.105ZM459.354 114.28C456.274 117.32 452.514 118.84 448.074 118.84C443.634 118.84 439.874 117.32 436.794 114.28C433.754 111.2 432.234 107.44 432.234 103C432.234 98.56 433.754 94.82 436.794 91.78C439.874 88.7 443.634 87.16 448.074 87.16C452.514 87.16 456.274 88.7 459.354 91.78C462.434 94.82 463.974 98.56 463.974 103C463.974 107.44 462.434 111.2 459.354 114.28ZM442.254 108.94C443.814 110.5 445.754 111.28 448.074 111.28C450.394 111.28 452.334 110.5 453.894 108.94C455.454 107.38 456.234 105.4 456.234 103C456.234 100.6 455.454 98.62 453.894 97.06C452.334 95.5 450.394 94.72 448.074 94.72C445.754 94.72 443.814 95.5 442.254 97.06C440.734 98.62 439.974 100.6 439.974 103C439.974 105.4 440.734 107.38 442.254 108.94ZM489.219 88H496.959V118H489.219V114.64C487.339 117.44 484.359 118.84 480.279 118.84C476.999 118.84 474.279 117.74 472.119 115.54C469.999 113.34 468.939 110.3 468.939 106.42V88H476.679V105.46C476.679 107.46 477.219 109 478.299 110.08C479.379 111.12 480.819 111.64 482.619 111.64C484.619 111.64 486.219 111.02 487.419 109.78C488.619 108.54 489.219 106.68 489.219 104.2V88ZM511.788 93.16C512.508 91.24 513.688 89.8 515.328 88.84C517.008 87.88 518.868 87.4 520.908 87.4V96.04C518.548 95.76 516.428 96.24 514.548 97.48C512.708 98.72 511.788 100.78 511.788 103.66V118H504.048V88H511.788V93.16ZM12.66 192L0.9 150H9.6L17.64 181.14L26.4 150H33.48L42.3 181.14L50.34 150H59.04L47.28 192H37.86L29.94 164.28L22.08 192H12.66ZM66.4472 180.18C67.4872 183.94 70.3072 185.82 74.9072 185.82C77.8672 185.82 80.1072 184.82 81.6272 182.82L87.8672 186.42C84.9072 190.7 80.5472 192.84 74.7872 192.84C69.8272 192.84 65.8472 191.34 62.8472 188.34C59.8472 185.34 58.3472 181.56 58.3472 177C58.3472 172.48 59.8272 168.72 62.7872 165.72C65.7472 162.68 69.5472 161.16 74.1872 161.16C78.5872 161.16 82.2072 162.68 85.0472 165.72C87.9272 168.76 89.3672 172.52 89.3672 177C89.3672 178 89.2672 179.06 89.0672 180.18H66.4472ZM66.3272 174.18H81.6272C81.1872 172.14 80.2672 170.62 78.8672 169.62C77.5072 168.62 75.9472 168.12 74.1872 168.12C72.1072 168.12 70.3872 168.66 69.0272 169.74C67.6672 170.78 66.7672 172.26 66.3272 174.18ZM112.23 161.16C116.27 161.16 119.71 162.7 122.55 165.78C125.43 168.82 126.87 172.56 126.87 177C126.87 181.44 125.43 185.2 122.55 188.28C119.71 191.32 116.27 192.84 112.23 192.84C108.03 192.84 104.79 191.38 102.51 188.46V192H94.7705V150H102.51V165.54C104.79 162.62 108.03 161.16 112.23 161.16ZM104.85 183.12C106.41 184.68 108.39 185.46 110.79 185.46C113.19 185.46 115.17 184.68 116.73 183.12C118.33 181.52 119.13 179.48 119.13 177C119.13 174.52 118.33 172.5 116.73 170.94C115.17 169.34 113.19 168.54 110.79 168.54C108.39 168.54 106.41 169.34 104.85 170.94C103.29 172.5 102.51 174.52 102.51 177C102.51 179.48 103.29 181.52 104.85 183.12ZM138.825 170.52C138.825 171.32 139.345 171.98 140.385 172.5C141.465 172.98 142.765 173.42 144.285 173.82C145.805 174.18 147.325 174.66 148.845 175.26C150.365 175.82 151.645 176.78 152.685 178.14C153.765 179.5 154.305 181.2 154.305 183.24C154.305 186.32 153.145 188.7 150.825 190.38C148.545 192.02 145.685 192.84 142.245 192.84C136.085 192.84 131.885 190.46 129.645 185.7L136.365 181.92C137.245 184.52 139.205 185.82 142.245 185.82C145.005 185.82 146.385 184.96 146.385 183.24C146.385 182.44 145.845 181.8 144.765 181.32C143.725 180.8 142.445 180.34 140.925 179.94C139.405 179.54 137.885 179.04 136.365 178.44C134.845 177.84 133.545 176.9 132.465 175.62C131.425 174.3 130.905 172.66 130.905 170.7C130.905 167.74 131.985 165.42 134.145 163.74C136.345 162.02 139.065 161.16 142.305 161.16C144.745 161.16 146.965 161.72 148.965 162.84C150.965 163.92 152.545 165.48 153.705 167.52L147.105 171.12C146.145 169.08 144.545 168.06 142.305 168.06C141.305 168.06 140.465 168.28 139.785 168.72C139.145 169.16 138.825 169.76 138.825 170.52ZM163.122 158.4C161.842 158.4 160.722 157.94 159.762 157.02C158.842 156.06 158.382 154.94 158.382 153.66C158.382 152.38 158.842 151.26 159.762 150.3C160.722 149.34 161.842 148.86 163.122 148.86C164.442 148.86 165.562 149.34 166.482 150.3C167.442 151.26 167.922 152.38 167.922 153.66C167.922 154.94 167.442 156.06 166.482 157.02C165.562 157.94 164.442 158.4 163.122 158.4ZM159.282 192V162H167.022V192H159.282ZM191.266 169.44H184.486V181.92C184.486 182.96 184.746 183.72 185.266 184.2C185.786 184.68 186.546 184.96 187.546 185.04C188.546 185.08 189.786 185.06 191.266 184.98V192C185.946 192.6 182.186 192.1 179.986 190.5C177.826 188.9 176.746 186.04 176.746 181.92V169.44H171.526V162H176.746V155.94L184.486 153.6V162H191.266V169.44ZM202.326 180.18C203.366 183.94 206.186 185.82 210.786 185.82C213.746 185.82 215.986 184.82 217.506 182.82L223.746 186.42C220.786 190.7 216.426 192.84 210.666 192.84C205.706 192.84 201.726 191.34 198.726 188.34C195.726 185.34 194.226 181.56 194.226 177C194.226 172.48 195.706 168.72 198.666 165.72C201.626 162.68 205.426 161.16 210.066 161.16C214.466 161.16 218.086 162.68 220.926 165.72C223.806 168.76 225.246 172.52 225.246 177C225.246 178 225.146 179.06 224.946 180.18H202.326ZM202.206 174.18H217.506C217.066 172.14 216.146 170.62 214.746 169.62C213.386 168.62 211.826 168.12 210.066 168.12C207.986 168.12 206.266 168.66 204.906 169.74C203.546 170.78 202.646 172.26 202.206 174.18ZM236.347 191.28C235.347 192.28 234.147 192.78 232.747 192.78C231.347 192.78 230.147 192.28 229.147 191.28C228.147 190.28 227.647 189.08 227.647 187.68C227.647 186.28 228.147 185.08 229.147 184.08C230.147 183.08 231.347 182.58 232.747 182.58C234.147 182.58 235.347 183.08 236.347 184.08C237.347 185.08 237.847 186.28 237.847 187.68C237.847 189.08 237.347 190.28 236.347 191.28Z" fill="black"/>
</svg>
